<svg xmlns="http://www.w3.org/2000/svg"  viewBox="0 0 50 50" width="200px" height="200px"><path fill="#399bdf" d="M40.076,16.253c-0.065-1.476-0.293-2.878-1.081-4.154c-0.894-1.448-2.101-2.755-3.258-3.995 c-0.775-0.832-1.592-1.621-2.427-2.39c-0.021-0.056-0.804-0.838-1.209-1.084c-0.089-0.077-1.04-0.544-1.321-0.58 c-0.883-0.282-1.83-0.406-2.762-0.441c-2.312-0.087-4.642-0.035-6.954,0.023c-2.34,0.059-4.68,0.181-7.01,0.417 c-1.736,0.176-3.758,0.28-4.931,1.707C8.701,6.141,8.386,6.68,8.278,7.26c-0.179,0.962-0.051,1.975-0.005,2.944 c0.057,1.198,0.114,2.395,0.171,3.593c0.226,4.749,0.452,9.498,0.677,14.247c0.225,4.729,0.347,9.477,0.71,14.197 c0.031,0.402,0.05,0.857,0.091,1.319c0.024,0.54,0.1,1.069,0.272,1.548c0.005,0.153,0.489,0.892,0.508,0.891 c0.345,0.436,0.812,0.788,1.477,0.978c1.095,0.313,2.301,0.185,3.421,0.122c1.328-0.075,2.653-0.195,3.976-0.328 c2.685-0.27,5.367-0.598,8.065-0.722c2.731-0.126,5.434,0.115,8.161,0.199c1.19,0.037,2.544,0.116,3.426-0.837 c0.022-0.024,0.034-0.054,0.054-0.078c0.942-0.652,0.799-2.169,0.811-3.19c0.028-2.468-0.121-4.933-0.21-7.399 c0.129-2.894,0.135-5.796,0.07-8.697c0.057-1.554,0.117-3.108,0.151-4.663C40.141,19.675,40.152,17.962,40.076,16.253z"/><path fill="#ff9600" d="M1.8,32.823c1.195,0.67,2.39,1.339,3.585,2.009c0.456,0.256,1.113,0.125,1.368-0.359 c0.249-0.472,0.129-1.095-0.359-1.368c-1.195-0.67-2.39-1.339-3.585-2.009c-0.456-0.256-1.113-0.125-1.368,0.359 C1.192,31.927,1.313,32.55,1.8,32.823L1.8,32.823z"/><path fill="#ff9600" d="M2.974,38.693c0.265-0.072,0.534-0.127,0.807-0.163c-0.089,0.012-0.177,0.024-0.266,0.036 c0.513-0.064,1.028-0.064,1.541,0.001c-0.089-0.012-0.177-0.024-0.266-0.036c0.136,0.019,0.271,0.041,0.406,0.069 c0.266,0.053,0.531,0.039,0.771-0.101c0.207-0.121,0.405-0.359,0.46-0.598c0.113-0.497-0.15-1.12-0.698-1.23 c-1.092-0.219-2.209-0.2-3.286,0.093c-0.505,0.137-0.864,0.717-0.698,1.23C1.911,38.511,2.433,38.84,2.974,38.693L2.974,38.693z"/><path fill="#ff9600" d="M5.688,30.386c1.287,0,1.289-2,0-2C4.401,28.386,4.399,30.386,5.688,30.386L5.688,30.386z"/><path fill="#df4bb1" d="M44.747,32.302c0.078-0.055,0.157-0.11,0.229-0.175c0.459-0.415,0.722-0.997,0.709-1.62 c-0.016-0.77-0.379-1.365-0.888-1.84c0.554-0.457,0.967-1.045,1.011-1.82c0.079-1.399-1.004-2.719-2.166-3.362 c-1.127-0.624-2.137,1.103-1.01,1.727c0.451,0.25,1.321,0.951,1.177,1.575c-0.115,0.498-0.995,0.792-1.395,0.963 c-0.683,0.292-0.625,1.415,0,1.727c0.315,0.157,1.323,0.543,1.269,1.031c-0.036,0.327-0.786,0.556-1.037,0.748 c-0.539,0.412-0.656,1.033-0.202,1.571c0.302,0.357,0.666,0.631,1.01,0.943c0.141,0.127,0.594,0.49,0.522,0.718 c-0.043,0.136-0.25,0.195-0.381,0.252c-0.357,0.158-0.726,0.277-1.069,0.469c-1.123,0.63-0.115,2.358,1.009,1.727 c1.022-0.573,2.253-0.781,2.418-2.181C46.088,33.64,45.446,32.963,44.747,32.302z"/><path fill="#df4bb1" d="M43.244,21.812c0.068,0.052,0.135,0.104,0.202,0.156c0.156,0.091,0.324,0.136,0.505,0.136 c0.021,0.001,0.042,0.002,0.064,0.003c0.138,0.005,0.266-0.023,0.385-0.086c0.124-0.04,0.231-0.109,0.322-0.207 c0.097-0.091,0.166-0.198,0.207-0.322c0.062-0.119,0.091-0.248,0.086-0.385c-0.012-0.089-0.024-0.177-0.036-0.266 c-0.047-0.169-0.133-0.316-0.257-0.441c-0.068-0.052-0.135-0.104-0.202-0.156c-0.156-0.09-0.324-0.136-0.505-0.136 c-0.021-0.001-0.042-0.002-0.064-0.003c-0.138-0.005-0.266,0.024-0.385,0.086c-0.124,0.04-0.231,0.109-0.322,0.207 c-0.097,0.091-0.166,0.198-0.207,0.322c-0.062,0.119-0.091,0.248-0.086,0.385c0.012,0.089,0.024,0.177,0.036,0.266 C43.035,21.541,43.12,21.688,43.244,21.812z"/><path fill="#fff" d="M37.62,13.332c-0.447-0.593-0.933-1.147-1.45-1.67c-0.424-0.695-1.034-1.354-1.415-1.773 c-0.862-0.947-1.737-1.883-2.605-2.824c-0.719-0.779-1.405-1.806-2.533-1.941c-0.215-0.025-0.428,0.174-0.482,0.367 c-0.147,0.521-0.203,1.047-0.189,1.573c-0.22,1.926-0.44,3.852-0.66,5.778c-0.062,0.539-0.123,1.078-0.185,1.617 c-0.043,0.375-0.101,0.762-0.038,1.137c-0.035,1.697,2.55,1.37,3.681,1.33c1.771-0.063,3.538-0.25,5.284-0.553 c0.704-0.122,1.557-0.222,1.583-1.13C38.631,14.536,38.022,13.867,37.62,13.332z"/><path fill="#fff" d="M13.174,23.982c0.514,0.561,1.048,1.102,1.605,1.62c0.379,0.353,0.762,0.699,1.273,0.843 c0.731,0.207,1.434-0.115,1.966-0.602c1.189-1.087,2.305-2.27,3.413-3.438c0.54-0.57,0.608-1.563,0-2.121 c-0.586-0.538-1.544-0.608-2.121,0c-0.95,1.001-1.918,1.984-2.906,2.948c-0.115,0.112-0.229,0.223-0.344,0.334 c-0.053,0.051-0.115,0.1-0.163,0.156c-0.083,0.076-0.041,0.045,0.127-0.091c0.17-0.041,0.34-0.082,0.51-0.123 c0.189,0,0.558,0.09,0.683,0.261c-0.036-0.05-0.104-0.093-0.149-0.134c-0.126-0.115-0.251-0.232-0.375-0.35 c-0.483-0.458-0.948-0.934-1.397-1.425c-0.532-0.58-1.59-0.579-2.121,0C12.604,22.481,12.607,23.363,13.174,23.982L13.174,23.982z"/><path fill="#fff" d="M13.127,31.907c0.669,0.546,1.336,1.095,2.007,1.638c0.31,0.251,0.565,0.465,0.958,0.573 c0.361,0.1,0.724,0.081,1.078-0.032c0.493-0.156,0.879-0.522,1.265-0.852c0.921-0.787,1.691-1.715,2.456-2.65 c0.259-0.317,0.439-0.636,0.439-1.061c0-0.368-0.163-0.807-0.439-1.061c-0.55-0.505-1.591-0.648-2.121,0 c-0.678,0.829-1.358,1.663-2.154,2.384c-0.17,0.154-0.343,0.302-0.52,0.448c-0.048,0.039-0.096,0.078-0.144,0.118 c-0.084,0.069-0.039,0.032,0.136-0.11c0.069-0.027,0.137-0.053,0.206-0.08c0.374-0.103,0.68-0.047,0.92,0.169 c0.097,0.078,0.11,0.088,0.04,0.031c-0.071-0.059-0.142-0.116-0.214-0.174c-0.598-0.488-1.196-0.976-1.794-1.463 c-0.318-0.259-0.635-0.439-1.061-0.439c-0.368,0-0.807,0.163-1.061,0.439C12.623,30.335,12.478,31.378,13.127,31.907 L13.127,31.907z"/><path fill="#fff" d="M13.384,39.706c0.595,0.512,1.175,1.091,1.825,1.533c0.887,0.603,2.012,0.416,2.833-0.196 c1.191-0.888,2.317-1.864,3.372-2.909c0.558-0.553,0.595-1.575,0-2.121c-0.601-0.552-1.526-0.59-2.121,0 c-0.837,0.83-1.719,1.614-2.644,2.345c-0.057,0.045-0.114,0.089-0.171,0.134c-0.164,0.129,0.205-0.148,0.05-0.04 c-0.103,0.072-0.226,0.136-0.322,0.215c-0.127,0.104,0.253-0.07,0.098-0.037c-0.08,0.022-0.058,0.022,0.065,0.001 c0.073-0.019,0.145-0.017,0.217,0.006c0.073,0.003,0.14,0.023,0.201,0.063c0.106,0.053,0.124,0.06,0.053,0.022 c-0.036-0.028-0.22-0.153-0.039-0.014c0.185,0.142-0.002-0.009-0.036-0.038c-0.058-0.05-0.116-0.1-0.174-0.15 c-0.116-0.1-0.232-0.2-0.348-0.299c-0.246-0.212-0.493-0.424-0.739-0.636c-0.594-0.511-1.545-0.627-2.121,0 C12.869,38.146,12.749,39.159,13.384,39.706L13.384,39.706z"/><path fill="#231f20" d="M24.872,24.256c3.334-0.02,6.665-0.167,9.988-0.442c0.637-0.053,0.642-1.053,0-1 c-3.323,0.275-6.654,0.422-9.988,0.442C24.229,23.259,24.228,24.259,24.872,24.256L24.872,24.256z"/><path fill="#231f20" d="M25.127,31.032c3.332-0.079,6.662-0.239,9.987-0.478c0.638-0.046,0.643-1.046,0-1 c-3.325,0.239-6.654,0.399-9.987,0.478C24.485,30.047,24.483,31.047,25.127,31.032L25.127,31.032z"/><g><path fill="#231f20" d="M25.416,38.346c3.311,0.086,6.622-0.002,9.923-0.266c0.637-0.051,0.643-1.051,0-1 c-3.301,0.263-6.613,0.352-9.923,0.266C24.772,37.329,24.773,38.329,25.416,38.346L25.416,38.346z"/></g></svg>