<svg xmlns="http://www.w3.org/2000/svg"  viewBox="0 0 50 50" width="200px" height="200px"><path fill="#99c93c" d="M7.603,4.592C6.764,5.008,5.924,5.422,5.085,5.84c-0.722,0.36-1.41,0.813-1.573,1.662	C3.396,8.11,3.61,8.71,3.997,9.171C3.41,9.529,2.913,10.05,2.885,10.779c-0.033,0.882,0.465,1.48,1.145,1.875	c-0.707,0.604-1.283,1.334-1.288,2.188c-0.011,1.973,2.605,1.962,3.964,1.686c0.53-0.107,0.834-0.735,0.698-1.23	c-0.151-0.551-0.699-0.806-1.23-0.698c-0.402,0.082-0.823,0.103-1.231,0.043c-0.008-0.001-0.014-0.004-0.021-0.005	c0.595-0.549,1.167-1.047,1.877-1.469c0.902-0.537,0.447-1.78-0.505-1.864c-0.36-0.031-0.756-0.105-1.082-0.263	c-0.002-0.001-0.102-0.07-0.196-0.138c0.288-0.153,0.821-0.434,0.883-0.461c0.432-0.19,0.876-0.35,1.324-0.499	c0.47-0.156,0.792-0.593,0.716-1.097c-0.066-0.44-0.483-0.93-0.982-0.867c-0.079,0.01-0.171,0.025-0.265,0.04	c0-0.001,0-0.003-0.001-0.004C6.686,8.017,6.679,8.02,6.673,8.022C6.325,8.076,5.91,8.129,5.635,7.979	c-0.027-0.015-0.072-0.067-0.11-0.11c0.001,0,0.001-0.001,0.002-0.001c0.14-0.005,0.438-0.236,0.568-0.3	c0.27-0.134,0.539-0.268,0.809-0.401c0.569-0.282,1.139-0.564,1.708-0.847C9.765,5.747,8.753,4.021,7.603,4.592z M4.747,14.826	C4.767,14.903,4.709,14.904,4.747,14.826L4.747,14.826z M4.854,10.772c0.033-0.012,0.041,0.009,0.04,0.038	C4.87,10.791,4.85,10.773,4.854,10.772z"/><path fill="#ff9600" d="M40.126,8.726c-0.134-0.928-0.603-1.77-1.572-2.004c-0.519-0.126-1.089-0.081-1.617-0.085 C36.219,6.63,35.5,6.627,34.781,6.626c-1.438-0.001-2.876,0.008-4.313,0.027c-5.631,0.075-11.26,0.306-16.878,0.693 c-1.03,0.071-2.2,0.069-3.038,0.762c-0.868,0.718-1.126,1.917-1.269,2.978c-0.177,1.311-0.145,2.641-0.153,3.961 c-0.008,1.391-0.017,2.783-0.025,4.174c-0.019,3.204-0.039,6.407-0.058,9.611c-0.176,1.999-0.352,3.997-0.524,5.996 c-0.12,1.393-0.239,2.787-0.357,4.18c-0.094,1.108-0.272,2.255-0.081,3.362c0.174,1.006,0.743,1.837,1.689,2.256 c1.036,0.458,2.281,0.485,3.392,0.604c2.77,0.297,5.553,0.471,8.339,0.525c2.746,0.053,5.495-0.012,8.236-0.195 c1.409-0.094,2.817-0.219,4.221-0.375c0.624-0.069,1.247-0.145,1.87-0.227c0.515-0.068,1.159-0.051,1.577-0.405 c0.383-0.326,0.523-0.905,0.688-1.357c0.233-0.639,0.439-1.288,0.618-1.944c0.339-1.247,0.574-2.518,0.719-3.802 c0.309-2.738,0.263-5.52,0.324-8.271c0.124-5.612,0.248-11.225,0.372-16.837C40.155,11.154,40.296,9.905,40.126,8.726z"/><path fill="#fff" d="M12.657,43.406c7.85,0.213,15.703,0.344,23.556,0.392c1.931,0.012,1.933-2.988,0-3 c-7.853-0.048-15.705-0.178-23.556-0.392C10.726,40.353,10.727,43.353,12.657,43.406L12.657,43.406z"/><path fill="#231f20" d="M12.877,9.168c-0.634,10.341-1.355,20.676-2.163,31.004c-0.05,0.642,0.95,0.638,1,0 c0.808-10.328,1.529-20.664,2.163-31.004C13.916,8.526,12.916,8.528,12.877,9.168L12.877,9.168z"/><path fill="#231f20" d="M21.236,29.343c0.177-1.319,0.889-2.522,1.76-3.51c0.824-0.935,1.892-1.625,3.185-1.471 c1.203,0.144,2.28,0.899,2.951,1.888c0.353,0.521,0.618,1.091,0.808,1.69c0.098,0.31,0.178,0.625,0.243,0.943 c0.027,0.133,0.051,0.266,0.073,0.4c0.015,0.089,0.028,0.179,0.04,0.269c-0.02,0.24,0.072,0.236,0.276-0.012 c0.205,0.116,0.41,0.233,0.615,0.349c-0.004-0.013-0.007-0.027-0.011-0.04c-0.167-0.621-1.132-0.357-0.964,0.266 c0.004,0.013,0.007,0.027,0.011,0.04c0.067,0.25,0.359,0.436,0.615,0.349c0.778-0.263,0.43-1.293,0.31-1.887 c-0.159-0.781-0.413-1.546-0.782-2.254c-0.718-1.376-1.945-2.489-3.469-2.88c-1.55-0.397-3.032,0.11-4.174,1.19 c-1.199,1.133-2.228,2.752-2.45,4.403C20.188,29.706,21.151,29.979,21.236,29.343L21.236,29.343z"/><path fill="#231f20" d="M20.704,29.794c3.179,0.381,6.374,0.617,9.575,0.708c0.644,0.018,0.643-0.982,0-1 c-3.201-0.091-6.395-0.328-9.575-0.708C20.066,28.717,20.072,29.718,20.704,29.794L20.704,29.794z"/><path fill="#231f20" d="M23.538,19.917c0.297,1.224,1.388,2.153,2.628,2.311c1.277,0.162,2.574-0.525,3.24-1.611 c0.762-1.243,0.558-2.798-0.544-3.758c-0.506-0.44-1.136-0.839-1.786-1.02c-0.644-0.179-1.319-0.075-1.9,0.247 c-1.436,0.796-1.98,2.605-1.57,4.134c0.166,0.621,1.131,0.357,0.964-0.266c-0.264-0.984-0.019-2.107,0.779-2.78 c0.318-0.268,0.726-0.446,1.147-0.427c0.516,0.024,1.015,0.347,1.426,0.636c0.37,0.259,0.723,0.613,0.868,1.051 c0.151,0.459,0.095,0.97-0.102,1.407c-0.368,0.817-1.226,1.402-2.127,1.413c-0.959,0.011-1.833-0.675-2.058-1.603 C24.351,19.026,23.386,19.291,23.538,19.917L23.538,19.917z"/><path fill="#399bdf" d="M42.401,7.123c0.738-0.546,1.526-1.02,2.355-1.417c0.215-0.103,0.398-0.375,0.46-0.598 c0.066-0.239,0.036-0.558-0.101-0.771c-0.138-0.214-0.343-0.401-0.598-0.46C44.243,3.816,44,3.858,43.747,3.979 c-0.828,0.396-1.617,0.87-2.355,1.417c-0.217,0.16-0.385,0.328-0.46,0.598c-0.066,0.239-0.036,0.558,0.101,0.771 c0.138,0.214,0.343,0.401,0.598,0.46C41.877,7.28,42.189,7.28,42.401,7.123L42.401,7.123z"/><g><path fill="#399bdf" d="M42.596,10.627c0.775,0.029,1.55,0.08,2.322,0.155c0.371,0.036,0.741,0.077,1.11,0.124 c0.056,0.007,0.284,0.037,0.103,0.013c0.092,0.013,0.184,0.026,0.277,0.039c0.215,0.031,0.43,0.064,0.644,0.098 c0.514,0.082,1.101-0.132,1.23-0.698c0.109-0.48-0.146-1.142-0.698-1.23c-1.652-0.264-3.316-0.438-4.988-0.5 c-0.523-0.02-1.024,0.474-1,1C41.621,10.186,42.035,10.606,42.596,10.627L42.596,10.627z"/></g><g><path fill="#399bdf" d="M38.749,5.152c0.714-0.69,1.428-1.38,2.142-2.07c0.182-0.176,0.293-0.455,0.293-0.707 c0-0.245-0.109-0.538-0.293-0.707C40.7,1.493,40.45,1.363,40.183,1.375c-0.268,0.012-0.511,0.104-0.707,0.293 c-0.714,0.69-1.428,1.38-2.142,2.07c-0.182,0.176-0.293,0.455-0.293,0.707c0,0.245,0.109,0.538,0.293,0.707 c0.191,0.175,0.441,0.305,0.707,0.293C38.309,5.433,38.553,5.341,38.749,5.152L38.749,5.152z"/></g></svg>