<svg xmlns="http://www.w3.org/2000/svg"  viewBox="0 0 50 50" width="200px" height="200px"><path fill="#99c93c" d="M43.464,23.794c-0.922-0.673-1.968-1.091-3.061-1.264c0.081-4.124-0.836-8.472-3.847-11.365 c-3.473-3.337-9.504-2.325-13.175,0.147c-1.766,1.189-3.187,2.789-4.076,4.698c-2.3-0.387-4.812,0.302-6.733,1.55 c-1.311,0.852-2.258,2.042-2.744,3.532c-0.299,0.918-0.4,1.89-0.41,2.86c-0.851,0.278-1.678,0.618-2.443,1.084 c-1.651,1.005-2.878,2.576-3.305,4.478c-0.879,3.926,1.419,7.617,4.783,9.509c0.25,0.141,7.171,1.704,10.469,1.803 c4.662,0.141,9.354,0.252,14.006-0.132c1.943-0.161,6.264-0.628,6.498-0.723c0.322-0.131,0.635-0.281,0.947-0.436 c0.144-0.034,0.948-0.359,1.054-0.582c2.263-1.376,4.104-3.397,4.879-6.001C47.307,29.604,46.332,25.888,43.464,23.794z"/><path fill="#231f20" d="M5.648,32.986c1.029,1.689,2.447,3.118,4.127,4.162c0.548,0.341,1.051-0.524,0.505-0.863 c-1.534-0.954-2.828-2.261-3.768-3.803C6.177,31.932,5.312,32.434,5.648,32.986L5.648,32.986z"/><path fill="#231f20" d="M38.699,37.747c1.789-0.372,3.381-1.573,4.237-3.187c0.301-0.568-0.562-1.074-0.863-0.505 c-0.747,1.408-2.08,2.403-3.639,2.727c-0.264,0.055-0.417,0.367-0.349,0.615C38.16,37.673,38.434,37.802,38.699,37.747 L38.699,37.747z"/><path fill="#fff" d="M20.489,29.323c4.006,0.506,8.054,0.509,12.061,0.009c0.804-0.1,1.5-0.618,1.5-1.5 c0-0.733-0.691-1.601-1.5-1.5c-4.007,0.5-8.055,0.497-12.061-0.009c-0.805-0.102-1.5,0.762-1.5,1.5 C18.989,28.718,19.682,29.221,20.489,29.323L20.489,29.323z"/><path fill="#fff" d="M17.195,21.965c-1.749,1.563-3.384,3.508-3.455,5.969c-0.064,2.226,1.305,4.514,3.337,5.447 c0.712,0.327,1.649,0.226,2.052-0.538c0.349-0.66,0.223-1.703-0.538-2.052c-0.192-0.088-0.378-0.185-0.556-0.299 c-0.071-0.046-0.139-0.094-0.208-0.143c0.245,0.173,0.012,0-0.038-0.045c-0.141-0.128-0.269-0.266-0.396-0.407 c-0.253-0.285,0.071,0.139-0.036-0.047c-0.052-0.091-0.118-0.175-0.173-0.265c-0.054-0.09-0.105-0.183-0.154-0.277 c-0.014-0.028-0.132-0.271-0.058-0.108c0.083,0.183-0.049-0.137-0.061-0.175c-0.033-0.1-0.063-0.201-0.089-0.303 c-0.026-0.102-0.047-0.205-0.069-0.308c-0.035-0.168-0.001-0.105,0.001,0.024c-0.003-0.211-0.016-0.418-0.012-0.63 c0.003-0.165,0.009-0.112-0.013,0.021c0.019-0.117,0.042-0.232,0.069-0.348c0.049-0.205,0.114-0.405,0.187-0.603 c-0.091,0.248,0.021-0.041,0.046-0.09c0.052-0.105,0.106-0.209,0.164-0.311c0.105-0.185,0.22-0.364,0.341-0.538 c0.049-0.071,0.192-0.261,0.065-0.098c0.074-0.095,0.151-0.186,0.229-0.278c0.141-0.165,0.288-0.325,0.438-0.482 c0.333-0.348,0.686-0.675,1.045-0.996c0.587-0.524,0.574-1.594,0-2.121C18.69,21.39,17.821,21.405,17.195,21.965L17.195,21.965z"/><path fill="#fff" d="M34.336,24.517c0.073,0.047,0.144,0.094,0.215,0.144c-0.239-0.17-0.011,0.004,0.038,0.05 c0.061,0.058,0.12,0.118,0.177,0.18c0.091,0.099,0.163,0.208,0.043,0.037c0.097,0.139,0.189,0.28,0.271,0.427 c0.052,0.093,0.093,0.192,0.145,0.285c0.106,0.189-0.068-0.21,0.001-0.002c0.124,0.38,0.244,0.749,0.32,1.143 c0.017,0.088,0.029,0.176,0.046,0.264c0.035,0.177-0.018-0.225,0.008,0.067c0.018,0.2,0.036,0.4,0.045,0.6 c0.02,0.421,0.021,0.846-0.012,1.266c-0.005,0.056-0.011,0.112-0.016,0.167c0.009-0.095,0.004-0.09-0.014,0.014 c-0.026,0.106-0.067,0.216-0.087,0.323c-0.044,0.24,0.081-0.142-0.013,0.043c-0.053,0.104-0.112,0.202-0.17,0.302 c-0.052,0.09-0.104,0.16-0.009,0.035c-0.07,0.093-0.151,0.179-0.231,0.263c-0.13,0.138-0.267,0.268-0.409,0.392 c-0.09,0.079-0.182,0.155-0.275,0.23c0.123-0.099,0.035-0.026-0.039,0.028c-0.192,0.141-0.387,0.278-0.583,0.414 c-0.643,0.447-1.001,1.335-0.538,2.052c0.412,0.639,1.363,1.017,2.052,0.538c0.989-0.687,1.964-1.408,2.621-2.438 c0.684-1.073,0.779-2.391,0.721-3.63c-0.105-2.245-0.817-4.515-2.793-5.787c-0.661-0.426-1.685-0.157-2.052,0.538 C33.404,23.21,33.63,24.063,34.336,24.517L34.336,24.517z"/><path fill="#df4bb1" d="M19.038,11.96c0.383-0.638,0.68-1.044,1.139-1.555c0.232-0.258,0.476-0.506,0.731-0.741 c0.127-0.118,0.257-0.233,0.39-0.345c0.08-0.067,0.16-0.133,0.241-0.199c0.027-0.022,0.054-0.043,0.082-0.065 c-0.051,0.039-0.05,0.039,0.004-0.002c0.555-0.417,1.147-0.785,1.768-1.096c0.155-0.078,0.312-0.152,0.471-0.222 c0.04-0.018,0.217-0.091,0.096-0.042c0.08-0.033,0.161-0.064,0.242-0.095c0.341-0.129,0.688-0.24,1.04-0.337 c0.521-0.143,0.842-0.71,0.698-1.23c-0.144-0.523-0.708-0.842-1.23-0.698c-3.076,0.846-5.756,2.886-7.4,5.619 c-0.278,0.463-0.103,1.098,0.359,1.368C18.142,12.595,18.759,12.424,19.038,11.96L19.038,11.96z"/><path fill="#df4bb1" d="M14.488,12.29c0.252-0.571,0.544-1.124,0.879-1.651c0.167-0.263,0.345-0.521,0.531-0.771 c0.044-0.058,0.121-0.157,0.033-0.045c0.046-0.058,0.092-0.116,0.139-0.174c0.103-0.127,0.209-0.251,0.317-0.374 c0.403-0.457,0.84-0.884,1.306-1.277c0.057-0.048,0.114-0.095,0.172-0.142c0.013-0.01,0.242-0.193,0.077-0.065 c0.117-0.091,0.238-0.179,0.359-0.265c0.267-0.189,0.541-0.367,0.822-0.535c0.449-0.269,0.654-0.911,0.359-1.368 c-0.291-0.451-0.888-0.647-1.368-0.359c-2.337,1.401-4.251,3.52-5.353,6.017c-0.211,0.477-0.155,1.097,0.359,1.368 C13.554,12.878,14.263,12.801,14.488,12.29L14.488,12.29z"/><path fill="#99c93c" d="M36.395,44.121c2.682-0.105,5.298-0.828,7.65-2.123c0.473-0.26,0.626-0.911,0.359-1.368 c-0.279-0.477-0.893-0.62-1.368-0.359c-2.042,1.125-4.335,1.76-6.64,1.85c-0.54,0.021-1,0.445-1,1 C35.395,43.647,35.853,44.142,36.395,44.121L36.395,44.121z"/><path fill="#99c93c" d="M43.705,21.274c0.05,0.019,0.099,0.039,0.148,0.059c-0.08-0.034-0.159-0.067-0.239-0.101 c0.429,0.181,0.831,0.416,1.201,0.699c-0.067-0.052-0.135-0.104-0.202-0.156c0.357,0.278,0.678,0.596,0.957,0.952 c-0.052-0.067-0.104-0.135-0.156-0.202c0.073,0.095,0.143,0.191,0.21,0.29c0.147,0.217,0.339,0.388,0.598,0.46 c0.239,0.066,0.558,0.036,0.771-0.101c0.214-0.138,0.401-0.343,0.46-0.598c0.057-0.252,0.05-0.549-0.101-0.771 c-0.357-0.526-0.776-1.013-1.276-1.408c-0.276-0.218-0.556-0.427-0.861-0.602c-0.311-0.178-0.641-0.321-0.975-0.45 c-0.228-0.088-0.568-0.018-0.771,0.101c-0.207,0.121-0.405,0.359-0.46,0.598c-0.058,0.256-0.046,0.543,0.101,0.771 C43.256,21.046,43.449,21.176,43.705,21.274L43.705,21.274z"/></svg>