<svg xmlns="http://www.w3.org/2000/svg"  viewBox="0 0 50 50" width="200px" height="200px"><path fill="#fd2923" d="M43.106,24.906c-0.011-0.165-0.05-0.311-0.1-0.448c-0.231-1.88-0.943-3.649-1.693-5.374 c-0.772-1.777-1.646-3.505-2.882-5.009c-2.435-2.961-5.95-4.816-9.509-6.077c-0.619-0.219-1.253-0.425-1.893-0.611 c-0.121-0.079-0.254-0.148-0.413-0.196c-5.687-1.694-11.759,1.13-15.555,5.371c-3.705,4.14-5.745,9.801-5.061,15.359 c0.022,0.176,0.067,0.345,0.129,0.505C6.41,30.165,7.25,31.911,7.99,33.48c0.827,1.755,1.953,3.354,3.362,4.692 c0.441,0.418,0.914,0.801,1.401,1.165c1.144,1.062,2.406,1.943,3.752,2.628c1.42,0.9,3.106,1.463,4.751,1.813 c3.58,0.763,7.662,0.644,10.998-0.984c3.14-1.532,5.922-4.349,7.855-7.221C42.212,32.448,43.354,28.68,43.106,24.906z"/><path fill="#99c93c" d="M36.688,8.701c0.06-0.211,0.126-0.42,0.2-0.627c0.037-0.103,0.076-0.206,0.117-0.308 c0.01-0.025,0.073-0.178,0.019-0.05c-0.059,0.141,0.024-0.053,0.037-0.082c0.18-0.4,0.389-0.787,0.623-1.158 c0.111-0.175,0.227-0.347,0.349-0.514c0.035-0.048,0.067-0.104,0.109-0.147c-0.047,0.049-0.098,0.124-0.022,0.029 c0.069-0.085,0.138-0.171,0.209-0.254c0.293-0.343,0.611-0.664,0.949-0.962c0.394-0.347,0.381-1.065,0-1.414 c-0.42-0.386-0.994-0.37-1.414,0c-1.483,1.307-2.565,3.056-3.104,4.955c-0.143,0.503,0.175,1.111,0.698,1.23 C35.99,9.52,36.534,9.239,36.688,8.701L36.688,8.701z"/><path fill="#99c93c" d="M39.685,11.008c-0.066,0.086-0.095,0.122-0.011,0.015c0.035-0.044,0.071-0.088,0.106-0.132 c0.064-0.079,0.13-0.157,0.196-0.234c0.14-0.163,0.284-0.322,0.432-0.477c0.304-0.318,0.626-0.621,0.962-0.905 c0.078-0.066,0.156-0.13,0.235-0.194c0.044-0.035,0.089-0.07,0.133-0.105c0.104-0.083-0.197,0.147-0.014,0.012 c0.173-0.127,0.346-0.253,0.525-0.373c0.366-0.246,0.744-0.471,1.134-0.677c0.463-0.245,0.643-0.927,0.359-1.368 c-0.303-0.471-0.873-0.621-1.368-0.359c-1.741,0.923-3.219,2.229-4.416,3.787c-0.147,0.191-0.161,0.551-0.101,0.771 c0.064,0.232,0.243,0.483,0.46,0.598c0.232,0.123,0.513,0.184,0.771,0.101C39.352,11.382,39.517,11.226,39.685,11.008 L39.685,11.008z"/><path fill="#99c93c" d="M41.794,13.943c0.137-0.137,0.282-0.265,0.435-0.384c-0.067,0.052-0.135,0.104-0.202,0.156 c0.299-0.228,0.625-0.417,0.972-0.564c-0.08,0.034-0.159,0.067-0.239,0.101c0.221-0.092,0.448-0.165,0.681-0.22 c0.239-0.057,0.475-0.25,0.598-0.46c0.125-0.214,0.179-0.53,0.101-0.771c-0.172-0.531-0.684-0.828-1.23-0.698 c-0.95,0.225-1.841,0.734-2.529,1.425c-0.181,0.182-0.293,0.45-0.293,0.707c0,0.245,0.109,0.538,0.293,0.707 c0.191,0.175,0.441,0.305,0.707,0.293C41.351,14.224,41.603,14.135,41.794,13.943L41.794,13.943z"/><path fill="#ff9600" d="M5.57,36.742c2.196,3.733,5.515,6.785,9.443,8.617c0.489,0.228,1.078,0.137,1.368-0.359 c0.253-0.433,0.133-1.139-0.359-1.368c-3.636-1.697-6.689-4.439-8.725-7.9C6.645,34.623,4.915,35.629,5.57,36.742L5.57,36.742z"/><path fill="#ff9600" d="M18.339,46.19c0.032,0.032,0.064,0.064,0.096,0.096c0.091,0.098,0.198,0.166,0.322,0.207 c0.119,0.063,0.248,0.091,0.385,0.086c0.138,0.005,0.266-0.024,0.385-0.086c0.124-0.04,0.231-0.109,0.322-0.207 c0.052-0.067,0.104-0.135,0.156-0.202c0.09-0.156,0.136-0.324,0.137-0.505c-0.012-0.089-0.024-0.177-0.036-0.266 c-0.048-0.169-0.133-0.316-0.257-0.441c-0.032-0.032-0.064-0.064-0.096-0.096c-0.091-0.098-0.198-0.166-0.322-0.207 c-0.119-0.063-0.248-0.091-0.385-0.086c-0.138-0.005-0.266,0.024-0.385,0.086c-0.124,0.04-0.231,0.109-0.322,0.207 c-0.052,0.067-0.104,0.135-0.156,0.202c-0.09,0.156-0.136,0.324-0.137,0.505c0.012,0.089,0.024,0.177,0.036,0.266 C18.129,45.918,18.215,46.066,18.339,46.19L18.339,46.19z"/><path fill="#fff" d="M35.131,37.78c-0.145-0.27-0.365-0.483-0.622-0.634c-1.363-1.95-2.771-3.867-4.242-5.737 c-0.87-1.106-1.759-2.196-2.668-3.269c-0.698-0.824-1.412-2.01-2.51-2.327c-2.313-0.667-5.031,0.168-7.393,0.199 c-2.922,0.038-5.84,0.117-8.758,0.276c-0.125,0.007-0.242,0.027-0.351,0.057c-0.669,0.075-1.438-0.293-1.334,0.58 c0.01,0.087,0.169,1.382,0.207,1.5c0.517,2.494,2.36,4.696,3.973,6.595c1.814,2.136,4.009,4.031,6.444,5.426 c2.388,1.368,5.136,2.289,7.911,2.244c3.205-0.051,6.173-1.368,9.03-2.693C35.849,39.521,35.743,38.434,35.131,37.78z"/><path fill="#231f20" d="M24.126,7.936c0.756,5.807,0.904,11.674,0.655,17.521c-0.027,0.643,0.973,0.642,1,0 c0.249-5.847,0.101-11.714-0.655-17.521C25.045,7.307,24.043,7.299,24.126,7.936L24.126,7.936z"/><path fill="#231f20" d="M6.999,26.599c6.048-0.035,12.095-0.17,18.139-0.407c0.641-0.025,0.645-1.025,0-1 c-6.043,0.237-12.091,0.372-18.139,0.407C6.356,25.603,6.355,26.603,6.999,26.599L6.999,26.599z"/><path fill="#231f20" d="M24.921,26.033c2.145,1.907,3.93,4.155,5.568,6.503c0.795,1.139,1.558,2.299,2.324,3.458 c0.805,1.219,1.591,2.464,2.622,3.509c0.453,0.459,1.16-0.248,0.707-0.707c-1.048-1.062-1.828-2.342-2.646-3.581 c-0.785-1.189-1.572-2.378-2.394-3.542c-1.616-2.287-3.374-4.482-5.472-6.347C25.148,24.899,24.439,25.604,24.921,26.033 L24.921,26.033z"/><path fill="#fff" d="M12.126,20.21c0.132-0.438,0.284-0.868,0.455-1.293c-0.116,0.287,0.057-0.123,0.067-0.145 c0.038-0.083,0.077-0.166,0.117-0.248c0.099-0.206,0.204-0.409,0.313-0.61c0.219-0.401,0.457-0.792,0.714-1.17 c0.128-0.189,0.264-0.373,0.399-0.558c-0.176,0.24,0.09-0.112,0.104-0.128c0.072-0.089,0.146-0.176,0.22-0.263 c0.297-0.347,0.612-0.679,0.942-0.996c0.165-0.158,0.334-0.312,0.507-0.462c0.086-0.075,0.173-0.149,0.262-0.221 c0.026-0.021,0.309-0.247,0.17-0.139c-0.132,0.103,0.184-0.136,0.177-0.13c0.092-0.067,0.186-0.133,0.28-0.198 c0.215-0.148,0.435-0.289,0.657-0.426c0.492-0.302,0.999-0.58,1.507-0.855c0.69-0.375,0.967-1.386,0.538-2.052 c-0.452-0.701-1.314-0.939-2.052-0.538c-1.947,1.057-3.761,2.292-5.196,4.001c-1.395,1.661-2.444,3.554-3.07,5.634 c-0.226,0.751,0.271,1.668,1.048,1.845C11.09,21.442,11.884,21.015,12.126,20.21L12.126,20.21z"/></svg>