<svg xmlns="http://www.w3.org/2000/svg"  viewBox="0 0 50 50" width="200px" height="200px"><path fill="#fd2923" d="M44.444,21.457c-0.293-1.973-0.647-4.062-1.482-5.889c-0.764-1.67-2.109-2.77-3.845-3.326 c-0.851-0.273-1.744-0.445-2.645-0.574c0.01-0.579,0.01-1.158-0.023-1.736c-0.034-0.598-0.104-1.193-0.198-1.784 c-0.086-0.54-0.197-1.102-0.497-1.571c-0.427-0.668-1.133-1.095-1.933-1.104c-0.886-0.011-1.487,0.603-1.958,1.268 c-0.544,0.767-0.857,1.715-1.04,2.631c-0.113,0.564-0.185,1.136-0.259,1.706c-0.005,0.039-0.008,0.079-0.013,0.118 c-3.544-0.121-7.097,0.078-10.604,0.614c-0.694,0.106-1.394,0.224-2.093,0.35c-0.075-0.43-0.155-0.855-0.219-1.27 c-0.11-0.716-0.193-1.442-0.334-2.153c-0.187-0.94-0.823-1.658-1.736-1.947c-0.352-0.111-0.747-0.14-1.115-0.111 c-0.722,0.057-1.25,0.404-1.651,0.999c-0.439,0.652-0.608,1.444-0.648,2.218c-0.033,0.632,0.063,1.265,0.14,1.891 c0.074,0.603,0.148,1.205,0.223,1.808c-1.348,0.571-2.584,1.399-3.348,2.674c-0.043,0.057-0.092,0.105-0.133,0.165 c-1.022,1.494-1.334,3.36-1.505,5.125c-0.224,2.313-0.299,4.648-0.298,6.971C7.23,33.09,7.64,34.645,8.391,39.145 c0.011,0.152,0.018,0.304,0.03,0.456c0.054,0.661,0.147,1.343,0.387,1.965c0.003,0.014,0.005,0.028,0.007,0.042 c0.006,0.031,0.022,0.051,0.032,0.077c0.006,0.013,0.011,0.026,0.017,0.04c0.017,0.035,0.032,0.071,0.055,0.098 c0.084,0.177,0.174,0.353,0.292,0.514c0.623,0.854,1.629,1.186,2.628,1.368c1.189,0.217,2.396,0.36,3.601,0.454 c0.36,0.028,0.721,0.038,1.082,0.056c1.572,0.137,3.149,0.22,4.725,0.252c5.325,0.108,10.653-0.292,15.957-0.723 c2.123-0.173,4.206-0.584,5.494-2.446c0.38-0.55,0.637-1.146,0.819-1.766c0.729-1.332,1.315-4.534,1.326-4.654 C45.075,32.218,44.763,23.6,44.444,21.457z"/><path fill="#df4bb1" d="M44.575,9.731c-0.612-0.281-1.227-0.4-1.898-0.443c-0.526-0.034-1.055-0.026-1.578-0.096 c0.089,0.012,0.177,0.024,0.266,0.036c-0.176-0.026-0.349-0.06-0.521-0.107c-0.504-0.138-1.11,0.172-1.23,0.698 c-0.12,0.528,0.159,1.082,0.698,1.23c0.919,0.252,1.871,0.162,2.805,0.282c-0.089-0.012-0.177-0.024-0.266-0.036 c0.154,0.022,0.307,0.049,0.458,0.088c0.075,0.019,0.15,0.042,0.223,0.067c0.037,0.013,0.073,0.026,0.11,0.04 c-0.148-0.064-0.174-0.075-0.077-0.031c0.251,0.115,0.495,0.177,0.771,0.101c0.232-0.064,0.483-0.243,0.598-0.46 C45.166,10.659,45.083,9.963,44.575,9.731L44.575,9.731z"/><path fill="#df4bb1" d="M42.872,4.174c-0.239,0.252-0.491,0.491-0.757,0.714c-0.068,0.057-0.138,0.113-0.207,0.169 C41.804,5.14,41.936,5.032,41.97,5.01c-0.033,0.022-0.064,0.048-0.095,0.071c-0.144,0.106-0.29,0.208-0.44,0.305 c-0.283,0.184-0.575,0.352-0.877,0.503c-0.157,0.079-0.334,0.137-0.485,0.226c0.034-0.02,0.2-0.082,0.074-0.032 c-0.037,0.015-0.074,0.03-0.111,0.044c-0.092,0.036-0.185,0.07-0.279,0.104c-0.492,0.175-0.873,0.69-0.698,1.23 c0.157,0.485,0.703,0.886,1.23,0.698c1.512-0.539,2.89-1.405,3.997-2.572c0.36-0.38,0.405-1.042,0-1.414 C43.896,3.815,43.257,3.768,42.872,4.174L42.872,4.174z"/><path fill="#df4bb1" d="M39.634,5.349c0.229-0.888,0.323-1.823,0.254-2.738c-0.02-0.268-0.098-0.512-0.293-0.707 C39.421,1.73,39.137,1.6,38.888,1.611c-0.259,0.012-0.527,0.097-0.707,0.293c-0.172,0.187-0.313,0.444-0.293,0.707 c0.041,0.533,0.025,1.066-0.045,1.596c0.012-0.089,0.024-0.177,0.036-0.266c-0.041,0.295-0.099,0.587-0.173,0.876 c-0.065,0.254-0.032,0.543,0.101,0.771c0.121,0.207,0.359,0.405,0.598,0.46C38.925,6.166,39.495,5.891,39.634,5.349L39.634,5.349z"/><path fill="#99c93c" d="M8.062,9.595C7.443,9.67,6.811,9.559,6.198,9.707c-0.64,0.154-1.172,0.586-1.432,1.19	c-0.245,0.569-0.239,1.231-0.061,1.821c0.079,0.258,0.196,0.5,0.319,0.739c-0.192,0.042-0.382,0.096-0.564,0.191	c-0.525,0.275-0.901,0.802-1.042,1.372c-0.158,0.64-0.047,1.226,0.202,1.765c-0.642,0.199-1.213,0.552-1.555,1.183	c-0.729,1.349-0.128,3.049,0.763,4.15c0.34,0.42,1.061,0.354,1.415,0c0.415-0.415,0.341-0.993,0-1.414	c-0.299-0.369-0.728-1.328-0.418-1.793c0.267-0.4,1.116-0.36,1.523-0.367c0.903-0.015,1.271-1.065,0.707-1.707	c-0.313-0.357-0.735-0.775-0.708-1.286c0.012-0.223,0.145-0.182,0.361-0.217c0.34-0.056,0.68-0.07,1.016-0.16	c0.506-0.135,0.863-0.717,0.698-1.23C7.2,13.25,6.569,12.52,6.577,11.779c0.002-0.197,0.072-0.134,0.272-0.153	c0.404-0.038,0.809,0.019,1.213-0.031c0.536-0.065,1-0.413,1-1C9.062,10.105,8.602,9.529,8.062,9.595z"/><path fill="#fff" d="M42.794,22.978c-0.008-0.072-0.042-0.137-0.063-0.206c0.028-0.878-0.433-1.779-1.394-1.773 c-10.058,0.063-20.108,0.656-30.121,1.779c-1.167,0.131-0.668,11.021,0.417,14.987c0.54,1.973,1.137,3.146,3.038,3.202 c1.995,0.058,3.996,0.022,5.991,0.013c4.074-0.018,8.147-0.09,12.22-0.216c1.773-0.055,3.774,0.167,5.509-0.322 c1.437-0.405,2.445-1.738,3.04-3.271C43.125,32.801,43.348,27.67,42.794,22.978z M40.354,34.135 c-0.018,0.295-0.017,0.59-0.033,0.885c-0.017,0.322-0.04,0.658-0.155,0.962c-0.196,0.521-0.503,0.929-0.984,1.223 c-0.782,0.477-1.714,0.469-2.596,0.561c-0.08,0.014-0.161,0.025-0.241,0.042c-0.516,0.11-1.032,0.009-1.416-0.374 c-0.18-0.182-0.305-0.396-0.374-0.642c-0.056-0.207-0.018-4.307,0.133-4.483c0.239-0.464,0.692-0.78,1.27-0.806 c0.101-0.004,1.675-0.318,2.386-0.248c0.555,0.055,1.07,0.199,1.472,0.613c0.389,0.399,0.529,0.908,0.566,1.45 C40.401,33.589,40.37,33.864,40.354,34.135z"/><path fill="#231f20" d="M9.358,23.346c8.622-0.79,17.258-1.417,25.904-1.874c2.441-0.129,4.882-0.245,7.324-0.348 c0.641-0.027,0.645-1.027,0-1c-8.65,0.365-17.293,0.894-25.923,1.591c-2.436,0.197-4.871,0.408-7.305,0.631 C8.723,22.404,8.717,23.405,9.358,23.346L9.358,23.346z"/><path fill="#fff" d="M13.534,10.442c0.055,0.352,0.107,0.704,0.154,1.057c-0.018-0.133-0.036-0.266-0.054-0.399 c0.153,1.147,0.265,2.299,0.336,3.454c0.024,0.399,0.151,0.772,0.439,1.061c0.26,0.26,0.687,0.456,1.061,0.439 c0.772-0.035,1.551-0.661,1.5-1.5c-0.101-1.645-0.289-3.282-0.544-4.91c-0.054-0.347-0.4-0.727-0.689-0.896 c-0.322-0.188-0.795-0.268-1.156-0.151c-0.363,0.117-0.713,0.342-0.896,0.689C13.485,9.665,13.468,10.021,13.534,10.442 L13.534,10.442z"/><path fill="#fff" d="M32.233,9.286c-0.029,1.214-0.059,2.427-0.088,3.641c-0.019,0.785,0.704,1.536,1.5,1.5 c0.829-0.037,1.48-0.659,1.5-1.5c0.029-1.214,0.059-2.427,0.088-3.641c0.019-0.785-0.704-1.536-1.5-1.5 C32.904,7.823,32.253,8.445,32.233,9.286L32.233,9.286z"/><path fill="#231f20" d="M34.657,24.375c0.052,1.367,0.104,2.735,0.156,4.102c0.011,0.283-0.015,0.608,0.071,0.882 c0.11,0.352,0.419,0.529,0.772,0.548c0.637,0.034,1.298-0.033,1.933-0.081c0.321-0.024,0.643-0.051,0.963-0.089 c0.295-0.035,0.578-0.085,0.817-0.274c0.511-0.406,0.372-1.013,0.334-1.576c-0.082-1.201,0.217-2.475-0.236-3.632 c-0.316-0.806-1.16-0.647-1.867-0.617c-0.768,0.033-1.535,0.083-2.301,0.15c-0.269,0.023-0.5,0.213-0.5,0.5 c0,0.252,0.229,0.524,0.5,0.5c0.557-0.048,1.114-0.089,1.673-0.119c0.262-0.014,0.523-0.027,0.785-0.037 c0.247-0.01,0.554,0.032,0.792-0.022c0.069-0.016,0.043,0.038,0.01-0.016c-0.068-0.11-0.013,0.06-0.014,0.045 c0.009,0.102,0.066,0.218,0.089,0.32c0.056,0.25,0.077,0.504,0.085,0.76c0.015,0.498-0.021,0.996-0.029,1.494 c-0.007,0.475,0.069,0.941,0.073,1.413c0,0.026-0.012,0.068-0.02,0.08c0.007-0.011,0.043-0.047,0.013-0.025 c-0.05,0.036-0.129,0.044-0.189,0.055c-0.236,0.041-0.481,0.051-0.719,0.071c-0.549,0.046-1.1,0.077-1.65,0.092 c-0.12,0.003-0.241,0.006-0.362,0.008c0.029,0-0.174-0.005-0.179,0.001c0.061,0.057,0.121,0.114,0.182,0.172 c-0.001-0.025-0.003-0.05-0.004-0.076c0.037-0.103-0.012-0.309-0.016-0.421c-0.005-0.14-0.011-0.28-0.016-0.421 c-0.048-1.262-0.096-2.524-0.144-3.787C35.632,23.734,34.632,23.73,34.657,24.375L34.657,24.375z"/><path fill="#231f20" d="M19.99,24.375c0.052,1.367,0.104,2.735,0.156,4.102c0.011,0.283-0.015,0.608,0.071,0.882 c0.11,0.352,0.419,0.529,0.772,0.548c0.637,0.034,1.298-0.033,1.933-0.081c0.321-0.024,0.643-0.051,0.963-0.089 c0.295-0.035,0.578-0.085,0.817-0.274c0.511-0.406,0.372-1.013,0.334-1.576c-0.082-1.201,0.217-2.475-0.236-3.632 c-0.316-0.806-1.16-0.647-1.867-0.617c-0.768,0.033-1.535,0.083-2.301,0.15c-0.269,0.023-0.5,0.213-0.5,0.5 c0,0.252,0.229,0.524,0.5,0.5c0.557-0.048,1.114-0.089,1.673-0.119c0.262-0.014,0.523-0.027,0.785-0.037 c0.247-0.01,0.554,0.032,0.792-0.022c0.069-0.016,0.043,0.038,0.01-0.016c-0.068-0.11-0.013,0.06-0.014,0.045 c0.009,0.102,0.066,0.218,0.089,0.32c0.056,0.25,0.077,0.504,0.085,0.76c0.015,0.498-0.021,0.996-0.029,1.494 c-0.007,0.475,0.069,0.941,0.073,1.413c0,0.026-0.012,0.068-0.02,0.08c0.007-0.011,0.043-0.047,0.013-0.025 c-0.05,0.036-0.129,0.044-0.189,0.055c-0.236,0.041-0.481,0.051-0.719,0.071c-0.549,0.046-1.1,0.077-1.65,0.092 c-0.12,0.003-0.241,0.006-0.362,0.008c0.029,0-0.174-0.005-0.179,0.001c0.061,0.057,0.121,0.114,0.182,0.172 c-0.001-0.025-0.003-0.05-0.004-0.076c0.037-0.103-0.012-0.309-0.016-0.421c-0.005-0.14-0.011-0.28-0.016-0.421 c-0.048-1.262-0.096-2.524-0.144-3.787C20.966,23.734,19.966,23.73,19.99,24.375L19.99,24.375z"/><path fill="#231f20" d="M27.323,24.375c0.052,1.367,0.104,2.735,0.156,4.102c0.011,0.283-0.015,0.608,0.071,0.882 c0.11,0.352,0.419,0.529,0.772,0.548c0.637,0.034,1.298-0.033,1.933-0.081c0.321-0.024,0.643-0.051,0.963-0.089 c0.295-0.035,0.578-0.085,0.817-0.274c0.511-0.406,0.372-1.013,0.334-1.576c-0.082-1.201,0.217-2.475-0.236-3.632 c-0.316-0.806-1.16-0.647-1.867-0.617c-0.768,0.033-1.535,0.083-2.301,0.15c-0.269,0.023-0.5,0.213-0.5,0.5 c0,0.252,0.229,0.524,0.5,0.5c0.557-0.048,1.114-0.089,1.673-0.119c0.262-0.014,0.523-0.027,0.785-0.037 c0.247-0.01,0.554,0.032,0.792-0.022c0.069-0.016,0.043,0.038,0.01-0.016c-0.068-0.11-0.013,0.06-0.014,0.045 c0.009,0.102,0.066,0.218,0.089,0.32c0.056,0.25,0.077,0.504,0.085,0.76c0.015,0.498-0.021,0.996-0.029,1.494 c-0.007,0.475,0.069,0.941,0.073,1.413c0,0.026-0.012,0.068-0.02,0.08c0.007-0.011,0.043-0.047,0.013-0.025 c-0.05,0.036-0.129,0.044-0.189,0.055c-0.236,0.041-0.481,0.051-0.719,0.071c-0.549,0.046-1.1,0.077-1.65,0.092 c-0.12,0.003-0.241,0.006-0.362,0.008c0.029,0-0.174-0.005-0.179,0.001c0.061,0.057,0.121,0.114,0.182,0.172 c-0.001-0.025-0.003-0.05-0.004-0.076c0.037-0.103-0.012-0.309-0.016-0.421c-0.005-0.14-0.011-0.28-0.016-0.421 c-0.048-1.262-0.096-2.524-0.144-3.787C28.299,23.734,27.299,23.73,27.323,24.375L27.323,24.375z"/><path fill="#231f20" d="M12.657,24.375c0.052,1.367,0.104,2.735,0.156,4.102c0.011,0.283-0.015,0.608,0.071,0.882 c0.11,0.352,0.419,0.529,0.772,0.548c0.637,0.034,1.298-0.033,1.933-0.081c0.321-0.024,0.643-0.051,0.963-0.089 c0.295-0.035,0.578-0.085,0.817-0.274c0.511-0.406,0.372-1.013,0.334-1.576c-0.082-1.201,0.217-2.475-0.236-3.632 c-0.316-0.806-1.16-0.647-1.867-0.617c-0.768,0.033-1.535,0.083-2.301,0.15c-0.269,0.023-0.5,0.213-0.5,0.5 c0,0.252,0.229,0.524,0.5,0.5c0.557-0.048,1.114-0.089,1.673-0.119c0.262-0.014,0.523-0.027,0.785-0.037 c0.247-0.01,0.554,0.032,0.792-0.022c0.069-0.016,0.043,0.038,0.01-0.016c-0.068-0.11-0.013,0.06-0.014,0.045 c0.009,0.102,0.066,0.218,0.089,0.32c0.056,0.25,0.077,0.504,0.085,0.76c0.015,0.498-0.021,0.996-0.029,1.494 c-0.007,0.475,0.069,0.941,0.073,1.413c0,0.026-0.012,0.068-0.02,0.08c0.007-0.011,0.043-0.047,0.013-0.025 c-0.05,0.036-0.129,0.044-0.189,0.055c-0.236,0.041-0.481,0.051-0.719,0.071c-0.549,0.046-1.1,0.077-1.65,0.092 c-0.12,0.003-0.241,0.006-0.362,0.008c0.029,0-0.174-0.005-0.179,0.001c0.061,0.057,0.121,0.114,0.182,0.172 c-0.001-0.025-0.003-0.05-0.004-0.076c0.037-0.103-0.012-0.309-0.016-0.421c-0.005-0.14-0.011-0.28-0.016-0.421 c-0.048-1.262-0.096-2.524-0.144-3.787C13.632,23.734,12.632,23.73,12.657,24.375L12.657,24.375z"/><path fill="#231f20" d="M27.657,32.375c0.052,1.367,0.104,2.735,0.156,4.102c0.011,0.283-0.015,0.608,0.071,0.882 c0.11,0.352,0.419,0.529,0.772,0.548c0.637,0.034,1.298-0.033,1.933-0.081c0.321-0.024,0.643-0.051,0.963-0.089 c0.295-0.035,0.578-0.085,0.817-0.274c0.511-0.406,0.372-1.013,0.334-1.576c-0.082-1.201,0.217-2.475-0.236-3.632 c-0.316-0.806-1.16-0.647-1.867-0.617c-0.768,0.033-1.535,0.083-2.301,0.15c-0.269,0.023-0.5,0.213-0.5,0.5 c0,0.252,0.229,0.524,0.5,0.5c0.557-0.048,1.114-0.089,1.673-0.119c0.262-0.014,0.523-0.027,0.785-0.037 c0.247-0.01,0.554,0.032,0.792-0.022c0.069-0.016,0.043,0.038,0.01-0.016c-0.068-0.11-0.013,0.06-0.014,0.045 c0.009,0.102,0.066,0.218,0.089,0.32c0.056,0.25,0.077,0.504,0.085,0.76c0.015,0.498-0.021,0.996-0.029,1.494 c-0.007,0.475,0.069,0.941,0.073,1.413c0,0.026-0.012,0.068-0.02,0.08c0.007-0.011,0.043-0.047,0.013-0.025 c-0.05,0.036-0.129,0.044-0.189,0.055c-0.236,0.041-0.481,0.051-0.719,0.071c-0.549,0.046-1.1,0.077-1.65,0.092 c-0.12,0.003-0.241,0.006-0.362,0.008c0.029,0-0.174-0.005-0.179,0.001c0.061,0.057,0.121,0.114,0.182,0.172 c-0.001-0.025-0.003-0.05-0.004-0.076c0.037-0.103-0.012-0.309-0.016-0.421c-0.005-0.14-0.011-0.28-0.016-0.421 c-0.048-1.262-0.096-2.524-0.144-3.787C28.632,31.734,27.632,31.73,27.657,32.375L27.657,32.375z"/><path fill="#231f20" d="M19.99,32.375c0.052,1.367,0.104,2.735,0.156,4.102c0.011,0.283-0.015,0.608,0.071,0.882 c0.11,0.352,0.419,0.529,0.772,0.548c0.637,0.034,1.298-0.033,1.933-0.081c0.321-0.024,0.643-0.051,0.963-0.089 c0.295-0.035,0.578-0.085,0.817-0.274c0.511-0.406,0.372-1.013,0.334-1.576c-0.082-1.201,0.217-2.475-0.236-3.632 c-0.316-0.806-1.16-0.647-1.867-0.617c-0.768,0.033-1.535,0.083-2.301,0.15c-0.269,0.023-0.5,0.213-0.5,0.5 c0,0.252,0.229,0.524,0.5,0.5c0.557-0.048,1.114-0.089,1.673-0.119c0.262-0.014,0.523-0.027,0.785-0.037 c0.247-0.01,0.554,0.032,0.792-0.022c0.069-0.016,0.043,0.038,0.01-0.016c-0.068-0.11-0.013,0.06-0.014,0.045 c0.009,0.102,0.066,0.218,0.089,0.32c0.056,0.25,0.077,0.504,0.085,0.76c0.015,0.498-0.021,0.996-0.029,1.494 c-0.007,0.475,0.069,0.941,0.073,1.413c0,0.026-0.012,0.068-0.02,0.08c0.007-0.011,0.043-0.047,0.013-0.025 c-0.05,0.036-0.129,0.044-0.189,0.055c-0.236,0.041-0.481,0.051-0.719,0.071c-0.549,0.046-1.1,0.077-1.65,0.092 c-0.12,0.003-0.241,0.006-0.362,0.008c0.029,0-0.174-0.005-0.179,0.001c0.061,0.057,0.121,0.114,0.182,0.172 c-0.001-0.025-0.003-0.05-0.004-0.076c0.037-0.103-0.012-0.309-0.016-0.421c-0.005-0.14-0.011-0.28-0.016-0.421 c-0.048-1.262-0.096-2.524-0.144-3.787C20.966,31.734,19.966,31.73,19.99,32.375L19.99,32.375z"/><path fill="#231f20" d="M12.657,32.375c0.052,1.367,0.104,2.735,0.156,4.102c0.011,0.283-0.015,0.608,0.071,0.882 c0.11,0.352,0.419,0.529,0.772,0.548c0.637,0.034,1.298-0.033,1.933-0.081c0.321-0.024,0.643-0.051,0.963-0.089 c0.295-0.035,0.578-0.085,0.817-0.274c0.511-0.406,0.372-1.013,0.334-1.576c-0.082-1.201,0.217-2.475-0.236-3.632 c-0.316-0.806-1.16-0.647-1.867-0.617c-0.768,0.033-1.535,0.083-2.301,0.15c-0.269,0.023-0.5,0.213-0.5,0.5 c0,0.252,0.229,0.524,0.5,0.5c0.557-0.048,1.114-0.089,1.673-0.119c0.262-0.014,0.523-0.027,0.785-0.037 c0.247-0.01,0.554,0.032,0.792-0.022c0.069-0.016,0.043,0.038,0.01-0.016c-0.068-0.11-0.013,0.06-0.014,0.045 c0.009,0.102,0.066,0.218,0.089,0.32c0.056,0.25,0.077,0.504,0.085,0.76c0.015,0.498-0.021,0.996-0.029,1.494 c-0.007,0.475,0.069,0.941,0.073,1.413c0,0.026-0.012,0.068-0.02,0.08c0.007-0.011,0.043-0.047,0.013-0.025 c-0.05,0.036-0.129,0.044-0.189,0.055c-0.236,0.041-0.481,0.051-0.719,0.071c-0.549,0.046-1.1,0.077-1.65,0.092 c-0.12,0.003-0.241,0.006-0.362,0.008c0.029,0-0.174-0.005-0.179,0.001c0.061,0.057,0.121,0.114,0.182,0.172 c-0.001-0.025-0.003-0.05-0.004-0.076c0.037-0.103-0.012-0.309-0.016-0.421c-0.005-0.14-0.011-0.28-0.016-0.421 c-0.048-1.262-0.096-2.524-0.144-3.787C13.632,31.734,12.632,31.73,12.657,32.375L12.657,32.375z"/></svg>